<mxfile host="65bd71144e">
    <diagram id="Qa63JxP96g1Ri710ouPb" name="Page-1">
        <mxGraphModel dx="899" dy="426" grid="1" gridSize="10" guides="1" tooltips="1" connect="1" arrows="1" fold="1" page="1" pageScale="1" pageWidth="827" pageHeight="1169" math="0" shadow="0">
            <root>
                <mxCell id="0"/>
                <mxCell id="1" parent="0"/>
                <mxCell id="2" value="Producto" style="swimlane;fontStyle=1;align=center;verticalAlign=top;childLayout=stackLayout;horizontal=1;startSize=26;horizontalStack=0;resizeParent=1;resizeParentMax=0;resizeLast=0;collapsible=1;marginBottom=0;" parent="1" vertex="1">
                    <mxGeometry x="80" y="40" width="360" height="350" as="geometry"/>
                </mxCell>
                <mxCell id="3" value="- codBar : string&#10;- descripcion : string&#10;- categoria : string&#10;- precio : double&#10;- cantidad : int" style="text;strokeColor=none;fillColor=default;align=left;verticalAlign=top;spacingLeft=4;spacingRight=4;overflow=hidden;rotatable=0;points=[[0,0.5],[1,0.5]];portConstraint=eastwest;" parent="2" vertex="1">
                    <mxGeometry y="26" width="360" height="84" as="geometry"/>
                </mxCell>
                <mxCell id="4" value="" style="line;strokeWidth=1;fillColor=none;align=left;verticalAlign=middle;spacingTop=-1;spacingLeft=3;spacingRight=3;rotatable=0;labelPosition=right;points=[];portConstraint=eastwest;strokeColor=inherit;" parent="2" vertex="1">
                    <mxGeometry y="110" width="360" height="8" as="geometry"/>
                </mxCell>
                <mxCell id="5" value="+ Producto()&#10;+ Producto(codBar : string, descripcion : string)&#10;+ Producto(descripcion : string, precio : double, cantidad : int)&#10;+ setCodBar (string)&#10;+ getCodBar () : string&#10;+ setDescripcion (string)&#10;+ getDescripcion () : string&#10;+ setCategoria (string)&#10;+ getCategoria () : string&#10;+ setPrecio (double)&#10;+ getPrecio () : double&#10;+ setCantidad (int)&#10;+ getCantidad () : int&#10;+ Compra(cantidad : int) : int&#10;+ Venta(cantidad : int) : int" style="text;strokeColor=none;fillColor=default;align=left;verticalAlign=top;spacingLeft=4;spacingRight=4;overflow=hidden;rotatable=0;points=[[0,0.5],[1,0.5]];portConstraint=eastwest;" parent="2" vertex="1">
                    <mxGeometry y="118" width="360" height="232" as="geometry"/>
                </mxCell>
            </root>
        </mxGraphModel>
    </diagram>
</mxfile>